<?xml version="1.0" standalone="no"?>
<!DOCTYPE svg PUBLIC "-//W3C//DTD SVG 20010904//EN"
 "http://www.w3.org/TR/2001/REC-SVG-20010904/DTD/svg10.dtd">
<svg version="1.0" xmlns="http://www.w3.org/2000/svg"
 width="600.000000pt" height="600.000000pt" viewBox="0 0 600.000000 600.000000"
 preserveAspectRatio="xMidYMid meet">
<metadata>
Created by potrace 1.14, written by Peter Selinger 2001-2017
</metadata>
<g transform="translate(0.000000,600.000000) scale(0.100000,-0.100000)"
fill="#000000" stroke="none">
<path d="M0 3000 l0 -3000 1261 0 1260 0 -42 78 c-116 210 -222 370 -396 595
-106 137 -114 151 -107 180 3 18 28 105 55 195 27 89 51 185 55 212 6 43 9 50
25 45 20 -7 24 2 38 94 6 35 12 65 14 67 8 9 46 -28 41 -41 -7 -18 21 -36 136
-84 97 -41 337 -158 424 -208 33 -19 50 -24 53 -16 6 15 81 -13 165 -63 33
-18 70 -34 84 -34 13 0 24 -4 24 -10 0 -5 -4 -10 -10 -10 -5 0 -10 -7 -10 -15
0 -8 5 -15 10 -15 6 0 10 -4 10 -10 0 -5 -9 -10 -20 -10 -11 0 -20 -5 -20 -11
0 -6 9 -13 20 -16 14 -4 20 -14 20 -33 0 -27 -3 -29 -57 -36 -81 -10 -237 1
-274 20 -39 20 -39 20 -39 1 0 -29 52 -39 212 -39 l158 -1 0 -387 c0 -252 4
-388 10 -388 6 0 10 137 10 390 0 215 1 390 3 390 1 0 58 7 127 15 69 8 146
15 173 15 26 0 47 4 47 9 0 21 -6 21 -272 -4 l-78 -8 0 32 c0 27 4 31 26 31
66 0 284 67 284 87 0 16 0 16 -44 -2 -36 -15 -230 -65 -253 -65 -22 0 -14 39
10 52 12 7 58 12 102 13 72 0 84 3 117 29 23 17 50 53 68 90 26 52 38 66 77
85 25 12 47 20 50 18 2 -3 -5 -186 -16 -408 -11 -222 -23 -500 -27 -616 l-6
-213 685 0 685 0 17 43 c93 227 267 952 233 973 -4 3 -8 29 -9 57 -1 72 -32
220 -47 225 -9 3 -11 -4 -7 -22 3 -14 8 -38 11 -53 4 -23 3 -25 -10 -14 -8 7
-12 19 -10 26 7 18 -30 41 -127 81 -78 31 -82 34 -130 105 -27 41 -57 85 -66
99 -17 24 -17 24 0 11 10 -8 20 -11 23 -8 12 12 -5 32 -42 51 -22 11 -49 31
-62 45 -18 21 -24 23 -31 12 -7 -10 -15 -11 -37 -3 -26 9 -26 11 -6 11 50 2
16 19 -83 41 l-105 23 0 31 c0 32 31 109 48 120 5 3 38 -20 73 -52 76 -69 128
-106 136 -98 3 3 35 -15 70 -40 72 -51 71 -51 195 -14 74 23 78 23 120 7 25
-10 63 -30 86 -45 47 -30 52 -42 72 -183 6 -47 15 -92 20 -99 19 -30 21 1 7
77 -9 43 -18 102 -22 131 l-6 54 23 -16 c12 -9 37 -16 55 -16 30 0 32 -2 44
-55 15 -68 35 -75 23 -7 -5 26 -8 65 -8 87 0 22 -5 45 -11 50 -7 6 -25 59 -40
118 -22 86 -25 111 -15 117 9 6 7 15 -10 37 -24 34 -39 89 -40 148 0 44 41
124 81 162 22 19 30 20 79 12 66 -10 170 -50 170 -64 -1 -17 -120 -118 -120
-101 0 9 -4 16 -9 16 -18 0 -21 -71 -10 -230 15 -209 7 -314 -27 -345 -28 -26
-30 -35 -9 -35 30 0 53 40 60 108 6 48 10 60 14 43 7 -27 31 -41 31 -18 0 7
-9 47 -19 88 -10 41 -22 101 -25 134 l-6 60 14 -53 c7 -29 16 -55 20 -59 17
-17 17 14 2 91 -22 111 -12 154 50 213 24 24 44 45 44 47 0 3 18 42 39 88 21
46 44 108 50 138 17 90 62 431 60 459 -5 67 -1 67 150 -16 9 -5 -11 -53 -22
-53 -7 0 -34 -72 -65 -173 l-52 -172 0 -143 c0 -138 -45 -611 -71 -742 -6 -30
-15 -75 -19 -100 -5 -25 -20 -92 -35 -150 -14 -58 -28 -141 -30 -185 -6 -96
-21 -173 -131 -668 -46 -208 -84 -385 -84 -393 0 -12 50 -14 335 -14 l335 0 0
3000 0 3000 -3000 0 -3000 0 0 -3000z m4396 2925 c4 -8 17 -15 30 -15 20 0 24
-5 24 -32 0 -18 -11 -69 -25 -112 -13 -44 -34 -136 -45 -205 -11 -69 -23 -141
-26 -159 -4 -24 -10 -32 -22 -30 -21 4 -20 47 8 296 11 95 20 177 20 182 0 4
-35 -3 -77 -16 -43 -14 -117 -35 -165 -49 -48 -13 -118 -40 -155 -59 -37 -20
-73 -36 -80 -36 -27 0 -12 40 22 62 19 13 35 28 35 35 0 6 18 14 41 18 23 4
76 23 118 42 182 84 285 111 297 78z m-2774 -154 c182 -62 374 -136 395 -153
18 -14 4 -38 -21 -38 -40 0 -179 46 -370 124 -104 42 -190 75 -192 74 -9 -10
122 -519 136 -528 16 -10 8 -44 -11 -48 -15 -3 -59 55 -65 84 -1 7 -13 58 -27
115 -15 57 -34 142 -43 189 -9 47 -25 109 -35 139 -22 64 -23 83 -6 100 16 17
35 12 239 -58z m1247 -623 c13 -23 14 -33 2 -75 -28 -99 -33 -141 -34 -273 -2
-151 14 -228 60 -289 32 -42 94 -70 156 -71 l47 0 0 35 c0 23 -6 38 -15 41 -9
4 -27 26 -41 50 -33 56 -35 135 -5 214 32 85 41 93 41 38 0 -84 21 -201 50
-287 l29 -85 -44 -47 c-47 -51 -85 -117 -85 -149 0 -17 -4 -19 -27 -13 -16 5
-45 8 -65 8 -36 -1 -38 1 -38 31 0 50 -28 116 -65 154 -60 62 -111 209 -122
353 -6 84 -5 87 16 87 12 0 21 6 21 15 0 8 -6 15 -14 15 -11 0 -9 15 9 73 12
39 28 97 35 127 7 30 17 61 23 68 16 20 50 10 66 -20z m309 -322 c22 -20 32
-38 32 -59 0 -53 37 -171 78 -249 5 -9 -66 -31 -77 -23 -23 14 -69 192 -85
333 -6 48 -3 48 52 -2z m-511 -229 c17 -45 31 -82 30 -83 -1 -1 -26 3 -56 9
l-53 11 5 52 c5 52 21 94 35 94 4 0 21 -37 39 -83z m694 12 c27 -22 49 -44 49
-49 0 -16 -33 -20 -49 -5 -20 18 -65 95 -56 95 4 0 29 -18 56 -41z m-855 -66
c-10 -10 -19 5 -10 18 6 11 8 11 12 0 2 -7 1 -15 -2 -18z m8 -32 c7 -11 -10
-99 -23 -119 -9 -15 -111 -44 -111 -32 0 15 32 85 52 113 26 37 71 57 82 38z
m1046 -56 c10 -33 20 -68 24 -77 6 -13 3 -15 -13 -11 -13 3 -23 0 -27 -10 -3
-9 -12 -13 -20 -10 -8 3 -12 9 -9 13 20 32 -99 9 -187 -36 -71 -36 -158 -120
-158 -152 l0 -26 22 24 22 24 7 -25 c3 -13 2 -28 -3 -33 -15 -18 -9 -39 10
-34 11 3 35 -7 57 -24 40 -29 120 -58 162 -58 14 0 23 -6 23 -15 0 -8 5 -15
10 -15 6 0 10 11 10 25 0 20 -5 25 -27 26 -16 0 -46 6 -68 13 l-40 13 30 13
c17 7 38 12 48 12 12 -1 17 7 17 24 0 13 4 24 9 24 6 0 7 16 4 35 -4 23 -2 35
6 35 17 0 13 19 -10 48 l-20 26 20 8 c24 8 98 -12 132 -36 13 -9 31 -16 40
-16 9 0 25 -12 34 -27 10 -16 29 -41 44 -56 l26 -28 -23 -42 c-12 -23 -22 -45
-22 -49 0 -13 28 -9 34 5 3 6 3 -4 0 -23 -3 -19 -10 -39 -15 -44 -5 -6 -9 -18
-9 -28 0 -24 -60 -39 -190 -48 -123 -8 -177 -5 -242 16 -34 11 -48 21 -48 33
0 10 -18 49 -40 87 -83 144 -72 248 38 366 54 58 98 84 115 70 7 -6 24 -8 40
-5 20 4 27 11 27 29 0 22 3 23 72 21 l71 -2 17 -60z m-907 39 c42 -11 67 -24
81 -42 39 -50 58 -64 78 -59 24 7 55 -40 63 -98 7 -46 -22 -171 -55 -235 -56
-109 -159 -180 -263 -180 -74 0 -197 28 -204 46 -3 8 -18 14 -33 14 -59 0 -79
30 -44 64 22 23 39 20 54 -9 13 -25 38 -29 32 -5 -2 7 5 9 18 5 33 -11 24 21
-11 35 -17 7 -56 37 -87 66 -31 30 -60 54 -64 54 -13 0 -9 -17 7 -30 8 -7 15
-18 15 -24 0 -6 9 -20 21 -29 19 -17 19 -20 5 -35 -8 -10 -19 -28 -23 -40 -8
-20 -11 -21 -27 -9 -14 10 -22 33 -27 77 l-7 63 49 57 c66 74 139 110 226 110
37 0 52 -16 24 -25 -11 -3 -28 -24 -40 -47 -18 -37 -18 -44 -6 -68 8 -15 12
-30 8 -33 -19 -20 83 -57 156 -57 52 0 81 37 81 105 0 42 2 46 20 40 11 -3 20
-2 20 2 0 15 -25 63 -32 63 -5 0 -8 6 -8 13 0 15 -101 71 -109 60 -8 -10 -41
-13 -41 -3 0 4 10 15 23 24 13 10 18 19 11 22 -8 3 -7 21 3 64 9 33 18 60 20
60 3 0 32 -7 66 -16z m501 -125 c-19 -29 -42 -78 -52 -110 -17 -59 -28 -69
-49 -48 -23 23 28 122 95 184 42 39 44 30 6 -26z m346 -35 c0 -12 -6 -15 -22
-10 -13 3 -32 6 -43 7 -17 1 -16 2 5 9 41 13 60 11 60 -6z m-584 -161 c-1 -30
4 -48 13 -51 10 -3 12 3 7 25 -10 42 12 67 51 59 28 -6 31 -11 42 -74 12 -68
51 -142 74 -142 7 0 28 -15 46 -34 44 -45 116 -75 196 -83 45 -4 65 -10 65
-19 0 -8 5 -14 10 -14 6 0 10 7 10 15 0 11 13 15 53 15 50 0 134 11 188 25 24
6 26 4 22 -19 -5 -22 -2 -26 20 -26 14 0 29 5 32 10 3 6 27 10 53 10 26 0 90
10 142 21 52 12 116 23 143 26 45 5 47 4 47 -20 0 -21 -7 -26 -42 -35 -67 -17
-266 -50 -340 -57 l-68 -7 -30 -63 c-16 -34 -30 -70 -30 -78 0 -9 -22 -42 -48
-74 -27 -32 -52 -71 -56 -86 -7 -31 -224 -251 -302 -308 -26 -19 -67 -53 -93
-75 -53 -48 -150 -104 -179 -104 -25 0 -82 31 -82 45 0 6 24 55 53 110 45 87
56 100 80 103 55 7 21 27 -49 30 -83 4 -118 -4 -110 -23 6 -17 -59 -170 -73
-170 -20 0 -194 161 -287 267 l-96 107 -79 -62 -79 -62 0 -116 c0 -129 -7
-179 -24 -179 -14 0 -9 212 6 221 5 3 8 18 6 33 l-3 27 -35 -29 c-19 -16 -40
-27 -47 -25 -25 10 -12 42 28 75 l41 33 -33 6 c-34 6 -34 6 8 8 34 1 51 9 100
51 32 27 61 50 66 50 4 0 7 7 7 15 0 8 -5 15 -10 15 -6 0 -13 8 -17 18 -5 16
-54 123 -59 130 -1 2 -82 -4 -180 -13 -146 -13 -179 -14 -185 -3 -15 23 -4 31
53 43 31 6 63 17 71 23 12 10 18 10 29 -2 12 -12 29 -13 99 -4 46 5 85 11 87
12 1 2 -4 44 -11 94 -12 78 -12 92 0 92 29 0 139 -43 159 -61 35 -32 166 -42
259 -18 113 28 162 65 209 156 17 34 47 134 50 169 2 18 13 44 20 44 1 0 2
-21 2 -47z m-296 21 c-8 -8 -23 -20 -34 -25 -13 -7 -9 -1 9 15 34 29 43 33 25
10z m464 -94 c8 -35 14 -66 12 -67 -7 -8 -39 73 -43 111 -8 63 13 33 31 -44z
m-454 66 c0 -2 -8 -10 -17 -17 -16 -13 -17 -12 -4 4 13 16 21 21 21 13z m40
-9 c0 -2 -10 -12 -22 -23 l-23 -19 19 23 c18 21 26 27 26 19z m-501 -105 c1
-13 -3 -20 -9 -17 -5 3 -10 23 -9 43 0 30 2 33 9 17 5 -11 9 -30 9 -43z m1508
-344 c-3 -8 -6 -5 -6 6 -1 11 2 17 5 13 3 -3 4 -12 1 -19z m148 -95 c17 -8 63
-36 102 -62 55 -34 73 -52 73 -68 0 -31 -17 -29 -120 11 l-85 34 -9 -39 c-12
-54 -26 -49 -26 10 0 49 -1 50 -49 76 -41 23 -50 33 -53 60 l-4 32 71 -20 c38
-10 84 -26 100 -34z m-1615 -128 c0 -25 -4 -45 -10 -45 -5 0 -10 6 -10 14 0 7
-3 28 -6 45 -5 24 -3 31 10 31 12 0 16 -10 16 -45z m1603 -72 c-18 -2 -48 -2
-65 0 -18 2 -4 4 32 4 36 0 50 -2 33 -4z m-44 -123 c5 -3 11 -81 13 -175 3
-93 4 -151 1 -127 -6 56 -21 54 -26 -5 -2 -27 -3 53 -3 177 0 124 1 205 3 180
3 -24 8 -47 12 -50z m18 68 c-3 -8 -6 -5 -6 6 -1 11 2 17 5 13 3 -3 4 -12 1
-19z m-888 -100 c1 6 9 12 19 12 16 -1 16 -1 -1 -11 -9 -6 -15 -14 -12 -19 3
-5 -4 -14 -15 -20 -11 -6 -20 -15 -20 -21 0 -6 5 -7 11 -3 6 3 3 -5 -6 -20
-19 -29 -27 -27 -32 5 -2 11 4 22 12 26 9 3 15 13 14 22 -1 9 2 25 6 35 8 19
9 19 16 0 4 -10 8 -13 8 -6z m1956 -20 c-6 -23 -24 -237 -25 -310 0 -20 7 -43
15 -52 8 -8 15 -30 15 -48 0 -18 7 -86 15 -150 15 -121 96 -426 116 -439 14
-8 -19 -87 -58 -137 l-26 -34 22 -45 c12 -25 20 -48 17 -50 -7 -7 51 -120 72
-141 10 -10 40 -56 66 -102 27 -47 56 -94 65 -104 15 -18 14 -18 -14 1 -66 46
-138 73 -192 73 -44 0 -53 -3 -53 -17 -1 -15 -2 -16 -9 -3 -13 23 -33 215 -26
252 7 36 -26 248 -51 338 -50 174 -159 827 -148 886 7 36 28 54 63 54 11 0 26
7 35 15 8 8 26 15 40 15 14 0 26 5 26 10 0 6 10 10 21 10 17 0 20 -4 14 -22z
m-2015 -113 c10 -13 8 -25 -14 -68 -15 -28 -40 -77 -56 -107 -15 -30 -34 -76
-41 -103 l-13 -47 -18 34 -17 33 42 84 c24 46 53 108 65 137 24 55 32 61 52
37z m-622 -147 l-2 -63 -3 53 c-5 65 -21 68 -26 5 -3 -47 -3 -47 -5 10 -2 51
0 57 18 57 18 0 20 -6 18 -62z m916 -88 c-7 -63 -18 -141 -24 -173 -11 -56 -8
-79 7 -64 3 4 12 35 19 70 l12 62 1 -56 c2 -88 13 -179 22 -179 5 0 9 14 9 31
0 46 16 26 39 -50 29 -97 112 -264 170 -346 28 -38 51 -76 51 -83 0 -19 -141
-296 -232 -456 -113 -197 -118 -207 -118 -238 0 -15 -4 -28 -9 -28 -5 0 -21
-26 -36 -57 -37 -80 -32 -154 13 -219 31 -43 31 -45 10 -39 -13 4 -30 13 -38
20 -8 7 -31 16 -50 20 -28 5 -299 126 -675 301 -16 8 -56 35 -89 60 -58 46
-58 47 -53 88 4 22 12 132 19 244 10 174 14 202 28 202 9 0 71 -20 139 -45
108 -41 342 -105 379 -105 8 0 56 -39 106 -87 85 -81 273 -233 289 -233 24 0
-5 33 -75 85 -44 33 -117 95 -162 137 l-81 77 43 1 c50 0 82 14 82 35 0 17
-26 20 -35 5 -3 -5 -30 -10 -60 -10 -48 0 -56 3 -84 35 -17 20 -63 83 -102
141 l-71 106 29 32 c15 17 32 36 37 41 12 13 -2 -13 -25 -46 -17 -25 -16 -39
2 -39 17 0 70 68 103 130 32 62 86 218 86 251 0 9 7 31 16 49 14 27 16 53 10
154 -3 66 -9 149 -12 184 -4 34 -2 62 3 62 4 0 24 -13 43 -29 19 -15 50 -36
68 -45 30 -15 33 -15 39 0 3 9 0 20 -8 24 -7 5 -10 12 -6 16 3 4 12 2 19 -4
38 -30 83 -15 127 44 19 24 35 43 36 42 1 -2 -4 -55 -11 -118z m646 -6 c0 -8
-4 -14 -10 -14 -5 0 -10 9 -10 21 0 11 5 17 10 14 6 -3 10 -13 10 -21z m-1570
-19 c0 -8 -4 -15 -10 -15 -5 0 -10 7 -10 15 0 8 5 15 10 15 6 0 10 -7 10 -15z
m3529 -537 c-1 -18 -5 -44 -9 -58 -6 -19 -8 -11 -9 33 -1 32 3 57 9 57 6 0 10
-15 9 -32z m-3727 -27 c25 -1 70 -6 98 -13 l51 -12 -6 -105 c-26 -481 -41
-655 -56 -645 -5 3 -9 25 -9 50 0 24 -4 44 -10 44 -5 0 -10 -14 -10 -31 0 -18
-4 -28 -10 -24 -14 9 -18 -9 -23 -103 -2 -45 -7 -85 -10 -89 -4 -3 -7 -18 -8
-32 0 -14 -3 -20 -6 -13 -11 27 -24 10 -17 -23 4 -23 2 -35 -5 -35 -8 0 -9
-22 -5 -72 5 -67 3 -78 -37 -180 -23 -59 -45 -108 -49 -108 -4 0 -25 19 -46
43 -20 23 -108 115 -195 204 l-157 163 33 102 c18 57 43 134 56 172 l23 69 16
-76 c9 -42 20 -80 23 -84 17 -16 18 13 5 99 -12 83 -16 93 -36 96 -12 2 -22 6
-22 8 0 22 100 303 126 356 36 71 42 90 22 70 -7 -7 -24 -12 -39 -12 -20 0
-30 7 -40 31 -17 43 4 84 44 84 15 0 27 -4 26 -9 0 -5 10 -14 23 -20 21 -11
24 -9 36 17 6 16 12 38 12 48 0 12 7 19 19 19 10 0 24 6 30 13 8 10 23 12 58
6 27 -4 69 -8 95 -8z m3195 -63 l33 1 -33 -60 c-17 -32 -37 -59 -43 -59 -6 0
-14 -17 -18 -37 -9 -57 -7 -73 8 -73 14 0 21 -23 92 -280 39 -143 40 -150 18
-150 -59 0 -128 93 -239 322 l-73 152 25 51 c14 27 39 69 54 92 16 23 29 46
29 51 0 5 23 5 58 -1 31 -6 72 -10 89 -9z m-3926 -18 c4 -14 7 -44 8 -67 1
-53 -11 -55 -84 -14 l-53 30 11 -40 c10 -42 0 -68 -22 -55 -14 9 -31 73 -31
119 0 45 11 47 80 12 59 -30 64 -31 50 -6 -17 33 -12 53 12 49 14 -2 25 -13
29 -28z m1013 -13 c56 -44 117 -77 142 -77 13 0 15 6 10 31 l-6 31 35 -31 c31
-27 52 -36 77 -32 4 0 23 -26 43 -59 19 -32 56 -86 80 -119 25 -34 45 -63 45
-66 0 -3 -9 -5 -20 -5 -11 0 -19 5 -18 12 2 7 -64 29 -172 58 -96 26 -208 58
-247 71 l-73 24 0 102 0 103 28 -2 c15 -1 49 -20 76 -41z m-689 17 c29 -22 56
-164 39 -208 -7 -19 -55 -21 -72 -4 -27 27 -12 54 27 48 10 -1 12 5 7 22 -3
13 -6 27 -6 31 0 5 -7 1 -16 -7 -8 -9 -24 -16 -34 -16 -62 0 -68 115 -7 140
31 12 39 11 62 -6z m-153 -49 c8 -58 -8 -85 -53 -85 -38 0 -69 41 -69 91 0 32
3 39 20 39 14 0 20 -7 20 -21 0 -25 17 -59 30 -59 6 0 10 21 10 46 0 38 3 45
17 42 13 -2 20 -17 25 -53z m4285 -47 c-2 -13 -4 -3 -4 22 0 25 2 35 4 23 2
-13 2 -33 0 -45z m-2166 -85 l39 5 0 -43 c0 -42 -2 -44 -52 -74 -43 -24 -54
-27 -56 -15 -2 9 -10 13 -19 10 -9 -4 -35 -11 -59 -17 -32 -8 -44 -16 -44 -30
0 -10 -4 -21 -10 -24 -17 -10 -11 -35 8 -35 10 0 65 23 122 50 l103 51 -6 -63
c-4 -35 -14 -170 -23 -300 l-17 -237 -50 -35 -51 -35 -23 57 c-28 71 -67 107
-139 128 -60 17 -107 13 -157 -13 -28 -14 -29 -14 -22 9 4 13 15 34 25 48 36
54 151 263 235 428 l87 172 35 -21 c26 -16 44 -20 74 -16z m2160 -245 l-11
-33 5 40 c3 22 6 54 7 70 1 27 2 26 5 -7 2 -20 -1 -51 -6 -70z m-3584 -165
c-3 -10 -5 -4 -5 12 0 17 2 24 5 18 2 -7 2 -21 0 -30z m2589 -178 c17 -22 38
-53 48 -68 16 -26 16 -28 1 -25 -9 1 -35 37 -57 78 -43 78 -41 81 8 15z
m-2639 -57 c-2 -13 -4 -5 -4 17 -1 22 1 32 4 23 2 -10 2 -28 0 -40z m1213 -51
c14 -6 36 -34 49 -60 30 -61 20 -93 -34 -103 -25 -4 -35 -11 -35 -25 0 -24
-17 -34 -34 -19 -11 8 -15 8 -19 -2 -4 -10 -8 -10 -14 -1 -5 6 -17 11 -28 10
-14 -1 -21 5 -23 20 -2 16 -11 23 -35 25 -38 4 -45 28 -26 85 19 60 52 83 118
83 31 0 67 -6 81 -13z m-1283 -59 c-3 -8 -6 -5 -6 6 -1 11 2 17 5 13 3 -3 4
-12 1 -19z"/>
<path d="M2970 4324 c0 -9 5 -14 12 -12 18 6 21 28 4 28 -9 0 -16 -7 -16 -16z"/>
<path d="M3175 4288 c-15 -14 -24 -27 -19 -31 14 -8 57 28 52 43 -3 9 -13 5
-33 -12z"/>
<path d="M3625 4096 c-10 -7 -26 -11 -34 -9 -19 4 -81 -32 -81 -48 0 -7 9 -9
21 -6 17 5 18 3 8 -9 -17 -20 -5 -28 19 -13 18 11 24 10 41 -5 12 -11 21 -25
21 -33 0 -7 5 -13 10 -13 17 0 11 36 -10 63 l-20 26 30 17 c16 10 30 24 30 31
0 17 -11 16 -35 -1z"/>
<path d="M2645 4379 c-8 -12 -9 -12 32 -33 21 -11 34 -12 38 -5 8 12 9 12 -32
33 -21 11 -34 12 -38 5z"/>
<path d="M2463 4023 c-32 -6 -30 -33 2 -33 14 0 25 -4 25 -10 0 -5 7 -10 15
-10 8 0 15 4 15 9 0 4 14 12 32 17 51 15 44 30 -14 31 -29 0 -63 -2 -75 -4z"/>
<path d="M2930 3955 c0 -8 7 -15 15 -15 8 0 15 7 15 15 0 8 -7 15 -15 15 -8 0
-15 -7 -15 -15z"/>
<path d="M3326 3833 c-11 -11 -6 -23 9 -23 8 0 15 4 15 9 0 13 -16 22 -24 14z"/>
<path d="M2290 3815 c0 -8 5 -15 10 -15 6 0 10 7 10 15 0 8 -4 15 -10 15 -5 0
-10 -7 -10 -15z"/>
<path d="M2620 3814 c0 -9 5 -14 12 -12 18 6 21 28 4 28 -9 0 -16 -7 -16 -16z"/>
<path d="M3010 3800 c0 -5 7 -10 15 -10 8 0 15 5 15 10 0 6 -7 10 -15 10 -8 0
-15 -4 -15 -10z"/>
<path d="M2930 3776 c0 -9 7 -16 16 -16 17 0 14 22 -4 28 -7 2 -12 -3 -12 -12z"/>
<path d="M2400 3740 c0 -5 5 -10 10 -10 6 0 10 5 10 10 0 6 -4 10 -10 10 -5 0
-10 -4 -10 -10z"/>
<path d="M3027 3744 c-8 -8 1 -24 14 -24 5 0 9 7 9 15 0 15 -12 20 -23 9z"/>
<path d="M3410 3735 c0 -8 5 -15 10 -15 6 0 10 7 10 15 0 8 -4 15 -10 15 -5 0
-10 -7 -10 -15z"/>
<path d="M3510 3740 c0 -5 5 -10 10 -10 6 0 10 5 10 10 0 6 -4 10 -10 10 -5 0
-10 -4 -10 -10z"/>
<path d="M2980 3705 c0 -8 7 -15 15 -15 8 0 15 7 15 15 0 8 -7 15 -15 15 -8 0
-15 -7 -15 -15z"/>
<path d="M2510 3695 c0 -8 5 -15 10 -15 6 0 10 7 10 15 0 8 -4 15 -10 15 -5 0
-10 -7 -10 -15z"/>
<path d="M2920 3660 c0 -5 5 -10 10 -10 6 0 10 5 10 10 0 6 -4 10 -10 10 -5 0
-10 -4 -10 -10z"/>
<path d="M2836 3533 c-12 -13 -5 -21 25 -32 40 -14 39 -14 39 3 0 15 -54 39
-64 29z"/>
<path d="M3226 1883 c-8 -20 17 -43 46 -43 23 0 23 22 0 43 -24 22 -38 21 -46
0z"/>
<path d="M1710 2179 c0 -5 5 -7 10 -4 6 3 10 8 10 11 0 2 -4 4 -10 4 -5 0 -10
-5 -10 -11z"/>
<path d="M1550 2175 c-7 -9 -10 -18 -7 -22 8 -7 37 15 37 28 0 14 -16 11 -30
-6z"/>
<path d="M3267 1313 c-16 -15 -6 -63 14 -73 41 -23 67 31 31 63 -20 18 -34 21
-45 10z"/>
<path d="M3150 1296 c-16 -21 -9 -60 13 -64 26 -5 47 16 47 49 0 24 -4 29 -24
29 -13 0 -29 -7 -36 -14z"/>
<path d="M3220 1223 c0 -12 8 -19 21 -20 14 -1 19 3 17 15 -5 24 -38 28 -38 5z"/>
<path d="M2470 160 c0 -14 134 -90 225 -127 46 -19 97 -32 120 -32 37 0 33 3
-50 32 -49 18 -134 56 -188 85 -105 56 -107 57 -107 42z"/>
</g>
</svg>
